<svg width="16" height="14" viewBox="0 0 16 8" fill="none" xmlns="http://www.w3.org/2000/svg">
<path d="M14 0H2.00002C1.26669 0 0.666687 0.6 0.666687 1.33333V6.66667C0.666687 7.4 1.26669 8 2.00002 8H14C14.7334 8 15.3334 7.4 15.3334 6.66667V1.33333C15.3334 0.6 14.7334 0 14 0ZM7.33335 4.66667H5.33335V6.66667H4.00002V4.66667H2.00002V3.33333H4.00002V1.33333H5.33335V3.33333H7.33335V4.66667ZM10.3334 6C9.78002 6 9.33335 5.55333 9.33335 5C9.33335 4.44667 9.78002 4 10.3334 4C10.8867 4 11.3334 4.44667 11.3334 5C11.3334 5.55333 10.8867 6 10.3334 6ZM13 4C12.4467 4 12 3.55333 12 3C12 2.44667 12.4467 2 13 2C13.5534 2 14 2.44667 14 3C14 3.55333 13.5534 4 13 4Z" fill="#424242"/>
</svg>
